<svg width="23" height="21" viewBox="0 0 23 21" fill="none" xmlns="http://www.w3.org/2000/svg">
<path d="M15.5 19.5V17.5C15.5 16.4391 15.0786 15.4217 14.3284 14.6716C13.5783 13.9214 12.5609 13.5 11.5 13.5H5.5C4.43913 13.5 3.42172 13.9214 2.67157 14.6716C1.92143 15.4217 1.5 16.4391 1.5 17.5V19.5" stroke="#D90000" stroke-width="2" stroke-linecap="round" stroke-linejoin="round"/>
<path d="M8.5 9.5C10.7091 9.5 12.5 7.70914 12.5 5.5C12.5 3.29086 10.7091 1.5 8.5 1.5C6.29086 1.5 4.5 3.29086 4.5 5.5C4.5 7.70914 6.29086 9.5 8.5 9.5Z" stroke="#D90000" stroke-width="2" stroke-linecap="round" stroke-linejoin="round"/>
<path d="M21.5 19.5V17.5C21.4993 16.6137 21.2044 15.7528 20.6614 15.0523C20.1184 14.3519 19.3581 13.8516 18.5 13.63" stroke="#D90000" stroke-width="2" stroke-linecap="round" stroke-linejoin="round"/>
<path d="M15.5 1.63C16.3604 1.85031 17.123 2.35071 17.6676 3.05232C18.2122 3.75392 18.5078 4.61683 18.5078 5.505C18.5078 6.39318 18.2122 7.25608 17.6676 7.95769C17.123 8.6593 16.3604 9.1597 15.5 9.38" stroke="#D90000" stroke-width="2" stroke-linecap="round" stroke-linejoin="round"/>
</svg>
