<svg width="25" height="24" viewBox="0 0 25 24" fill="none" xmlns="http://www.w3.org/2000/svg">
<path d="M9.55859 11.8997L17.6286 3.83967C17.8917 3.56812 18.2061 3.35162 18.5537 3.20278C18.9012 3.05395 19.2749 2.97575 19.653 2.97275C20.031 2.96974 20.4059 3.04199 20.7558 3.18529C21.1057 3.32858 21.4235 3.54006 21.6909 3.8074C21.9582 4.07474 22.1697 4.39261 22.313 4.74248C22.4563 5.09235 22.5285 5.46723 22.5255 5.8453C22.5225 6.22336 22.4443 6.59705 22.2955 6.9446C22.1466 7.29215 21.9301 7.60661 21.6586 7.86967L13.5986 15.9497" stroke="#D90000" stroke-width="2" stroke-linecap="round" stroke-linejoin="round"/>
<path d="M7.57002 14.9404C5.91002 14.9404 4.57002 16.2904 4.57002 17.9604C4.57002 19.2904 2.07002 19.4804 2.57002 19.9804C3.65002 21.0804 5.06002 22.0004 6.57002 22.0004C8.77002 22.0004 10.57 20.2004 10.57 17.9604C10.5713 17.5651 10.4948 17.1735 10.3447 16.8078C10.1947 16.4421 9.97407 16.1095 9.69549 15.8291C9.41691 15.5487 9.08583 15.3259 8.72114 15.1734C8.35645 15.0209 7.9653 14.9417 7.57002 14.9404Z" stroke="#D90000" stroke-width="2" stroke-linecap="round" stroke-linejoin="round"/>
</svg>
