<svg width="23" height="22" viewBox="0 0 23 22" fill="none" xmlns="http://www.w3.org/2000/svg">
<path d="M17.87 1.62999L13.5 5.99999L11.91 4.40999C11.5353 4.03749 11.0284 3.8284 10.5 3.8284C9.97163 3.8284 9.46473 4.03749 9.09 4.40999L7.5 5.99999L16.5 15L18.09 13.41C18.4625 13.0353 18.6716 12.5284 18.6716 12C18.6716 11.4716 18.4625 10.9647 18.09 10.59L16.5 8.99999L20.87 4.62999C21.2678 4.23216 21.4913 3.6926 21.4913 3.12999C21.4913 2.56738 21.2678 2.02781 20.87 1.62999C20.4722 1.23216 19.9326 1.00867 19.37 1.00867C18.8074 1.00867 18.2678 1.23216 17.87 1.62999Z" stroke="#D90000" stroke-width="2" stroke-linecap="round" stroke-linejoin="round"/>
<path d="M8.5 7C6.5 10 4.5 10.5 1.5 11L9.5 21C11.5 20 15.5 16 15.5 14" stroke="#D90000" stroke-width="2" stroke-linecap="round" stroke-linejoin="round"/>
<path d="M14 16.5L4 14" stroke="#D90000" stroke-width="2" stroke-linecap="round" stroke-linejoin="round"/>
</svg>
