<svg width="23" height="21" viewBox="0 0 23 21" fill="none" xmlns="http://www.w3.org/2000/svg">
<path d="M19.9201 3.58002C19.4184 3.07659 18.8223 2.67716 18.1659 2.40461C17.5095 2.13206 16.8058 1.99176 16.0951 1.99176C15.3844 1.99176 14.6806 2.13206 14.0243 2.40461C13.3679 2.67716 12.7718 3.07659 12.2701 3.58002L11.5001 4.36002L10.7301 3.58002C10.2284 3.07659 9.63229 2.67716 8.97591 2.40461C8.31953 2.13206 7.6158 1.99176 6.90509 1.99176C6.19437 1.99176 5.49065 2.13206 4.83427 2.40461C4.17789 2.67716 3.58176 3.07659 3.08009 3.58002C0.960086 5.70002 0.830086 9.28002 3.50009 12L11.5001 20L19.5001 12C22.1701 9.28002 22.0401 5.70002 19.9201 3.58002Z" stroke="#D90000" stroke-width="2" stroke-linecap="round" stroke-linejoin="round"/>
<path d="M11.5002 4.35999L8.37019 7.49999C7.97448 7.89893 7.75244 8.43808 7.75244 8.99999C7.75244 9.5619 7.97448 10.101 8.37019 10.5V10.5C8.76913 10.8957 9.30828 11.1177 9.87019 11.1177C10.4321 11.1177 10.9712 10.8957 11.3702 10.5L13.6302 8.28999C14.1919 7.73427 14.9501 7.42257 15.7402 7.42257C16.5303 7.42257 17.2885 7.73427 17.8502 8.28999L20.2502 10.69" stroke="#D90000" stroke-width="2" stroke-linecap="round" stroke-linejoin="round"/>
<path d="M17.5 14L15.5 12" stroke="#D90000" stroke-width="2" stroke-linecap="round" stroke-linejoin="round"/>
<path d="M14.5 17L12.5 15" stroke="#D90000" stroke-width="2" stroke-linecap="round" stroke-linejoin="round"/>
</svg>
