<svg width="25" height="24" viewBox="0 0 25 24" fill="none" xmlns="http://www.w3.org/2000/svg">
<path d="M9.5 18H15.5" stroke="#D90000" stroke-width="2" stroke-linecap="round" stroke-linejoin="round"/>
<path d="M10.5 22H14.5" stroke="#D90000" stroke-width="2" stroke-linecap="round" stroke-linejoin="round"/>
<path d="M15.59 14C15.77 13.02 16.24 12.26 17 11.5C17.4829 11.0555 17.8662 10.5138 18.1247 9.91058C18.3832 9.30734 18.5111 8.65621 18.5 8C18.5 6.4087 17.8679 4.88258 16.7426 3.75736C15.6174 2.63214 14.0913 2 12.5 2C10.9087 2 9.38258 2.63214 8.25736 3.75736C7.13214 4.88258 6.5 6.4087 6.5 8C6.5 9 6.73 10.23 8 11.5C8.72405 12.1621 9.218 13.0379 9.41 14" stroke="#D90000" stroke-width="2" stroke-linecap="round" stroke-linejoin="round"/>
</svg>
