<svg width="15" height="23" viewBox="0 0 15 23" fill="none" xmlns="http://www.w3.org/2000/svg">
<path d="M5.5 21.5H9.5" stroke="#D90000" stroke-width="2" stroke-linecap="round" stroke-linejoin="round"/>
<path d="M10.59 13.5C10.77 12.52 11.24 11.76 12 11C12.4829 10.5555 12.8662 10.0138 13.1247 9.41058C13.3832 8.80734 13.5111 8.15621 13.5 7.5C13.5 5.9087 12.8679 4.38258 11.7426 3.25736C10.6174 2.13214 9.0913 1.5 7.5 1.5C5.9087 1.5 4.38258 2.13214 3.25736 3.25736C2.13214 4.38258 1.5 5.9087 1.5 7.5C1.5 8.5 1.73 9.73 3 11C3.72405 11.6621 4.218 12.5379 4.41 13.5" stroke="#D90000" stroke-width="2" stroke-linecap="round" stroke-linejoin="round"/>
</svg>
