<svg width="23" height="22" viewBox="0 0 23 22" fill="none" xmlns="http://www.w3.org/2000/svg">
<path d="M8.59 8C8.8251 7.33167 9.28915 6.76811 9.89995 6.40913C10.5108 6.05016 11.2289 5.91894 11.9272 6.03871C12.6255 6.15849 13.2588 6.52152 13.7151 7.06353C14.1713 7.60553 14.4211 8.29152 14.42 9C14.42 11 11.42 12 11.42 12M11.5 16H11.51M21.5 11C21.5 16.5228 17.0228 21 11.5 21C5.97715 21 1.5 16.5228 1.5 11C1.5 5.47715 5.97715 1 11.5 1C17.0228 1 21.5 5.47715 21.5 11Z" stroke="#D90000" stroke-width="2" stroke-linecap="round" stroke-linejoin="round"/>
</svg>
