<svg width="23" height="22" viewBox="0 0 23 22" fill="none" xmlns="http://www.w3.org/2000/svg">
<path d="M8.55859 10.9L16.6286 2.84001C16.8917 2.56845 17.2061 2.35195 17.5537 2.20312C17.9012 2.05428 18.2749 1.97609 18.653 1.97308C19.031 1.97008 19.4059 2.04233 19.7558 2.18562C20.1057 2.32892 20.4235 2.5404 20.6909 2.80774C20.9582 3.07508 21.1697 3.39294 21.313 3.74281C21.4563 4.09268 21.5285 4.46757 21.5255 4.84563C21.5225 5.2237 21.4443 5.59739 21.2955 5.94494C21.1466 6.29249 20.9301 6.60695 20.6586 6.87001L12.5986 14.95" stroke="#D90000" stroke-width="2" stroke-linecap="round" stroke-linejoin="round"/>
<path d="M6.57002 13.94C4.91002 13.94 3.57002 15.29 3.57002 16.96C3.57002 18.29 1.07002 18.48 1.57002 18.98C2.65002 20.08 4.06002 21 5.57002 21C7.77002 21 9.57002 19.2 9.57002 16.96C9.57134 16.5647 9.49478 16.1731 9.34473 15.8074C9.19468 15.4417 8.97407 15.1091 8.69549 14.8287C8.41691 14.5482 8.08583 14.3254 7.72114 14.1729C7.35645 14.0205 6.9653 13.9413 6.57002 13.94Z" stroke="#D90000" stroke-width="2" stroke-linecap="round" stroke-linejoin="round"/>
</svg>
