<svg width="199" height="124" viewBox="0 0 199 124" fill="none" xmlns="http://www.w3.org/2000/svg">
<path d="M96.5 9H96.51" stroke="#D90000" stroke-width="2" stroke-linecap="round" stroke-linejoin="round"/>
<path d="M102.5 9H102.51" stroke="#D90000" stroke-width="2" stroke-linecap="round" stroke-linejoin="round"/>
<path d="M99.5 1C97.3783 1 95.3434 1.84285 93.8431 3.34315C92.3429 4.84344 91.5 6.87827 91.5 9V21L94.5 18L97 20.5L99.5 18L102 20.5L104.5 18L107.5 21V9C107.5 6.87827 106.657 4.84344 105.157 3.34315C103.657 1.84285 101.622 1 99.5 1Z" stroke="#D90000" stroke-width="2" stroke-linecap="round" stroke-linejoin="round"/>
<path d="M2.37325 96L0.14925 85.504H1.52525L2.62925 91.216C2.72525 91.7813 2.82658 92.3467 2.93325 92.912C3.03992 93.4773 3.14125 94.0427 3.23725 94.608H3.30125C3.41858 94.0427 3.54125 93.4773 3.66925 92.912C3.79725 92.336 3.91992 91.7707 4.03725 91.216L5.49325 85.504H6.70925L8.16525 91.216C8.29325 91.7707 8.42125 92.336 8.54925 92.912C8.67725 93.4773 8.80525 94.0427 8.93325 94.608H8.99725C9.09325 94.0427 9.18925 93.4773 9.28525 92.912C9.38125 92.336 9.48258 91.7707 9.58925 91.216L10.6933 85.504H11.9733L9.79725 96H8.19725L6.61325 89.68C6.51725 89.2747 6.42658 88.88 6.34125 88.496C6.26658 88.1013 6.18658 87.7013 6.10125 87.296H6.03725C5.96258 87.7013 5.87725 88.1013 5.78125 88.496C5.68525 88.88 5.59458 89.2747 5.50925 89.68L3.95725 96H2.37325ZM16.8234 96.192C16.13 96.192 15.5007 96.032 14.9354 95.712C14.37 95.3813 13.922 94.912 13.5914 94.304C13.2607 93.696 13.0954 92.9707 13.0954 92.128C13.0954 91.2747 13.2607 90.544 13.5914 89.936C13.9327 89.328 14.37 88.8587 14.9034 88.528C15.4367 88.1973 15.9967 88.032 16.5834 88.032C17.5754 88.032 18.338 88.3627 18.8714 89.024C19.4154 89.6853 19.6874 90.5707 19.6874 91.68C19.6874 91.8187 19.682 91.9573 19.6714 92.096C19.6714 92.224 19.6607 92.336 19.6394 92.432H14.3914C14.4447 93.2533 14.7007 93.9093 15.1594 94.4C15.6287 94.8907 16.2367 95.136 16.9834 95.136C17.3567 95.136 17.698 95.0827 18.0074 94.976C18.3274 94.8587 18.6314 94.7093 18.9194 94.528L19.3834 95.392C19.0527 95.6053 18.674 95.792 18.2474 95.952C17.8314 96.112 17.3567 96.192 16.8234 96.192ZM14.3754 91.488H18.5354C18.5354 90.6987 18.3647 90.1013 18.0234 89.696C17.6927 89.28 17.2234 89.072 16.6154 89.072C16.0714 89.072 15.5807 89.2853 15.1434 89.712C14.7167 90.128 14.4607 90.72 14.3754 91.488ZM24.812 96V84.608H26.108V92.32H26.156L29.468 88.224H30.924L28.316 91.344L31.276 96H29.836L27.564 92.256L26.108 93.952V96H24.812ZM32.7339 96V88.224H33.8219L33.9339 89.344H33.9819C34.3552 88.9707 34.7499 88.6613 35.1659 88.416C35.5819 88.16 36.0565 88.032 36.5899 88.032C37.4112 88.032 38.0085 88.2933 38.3819 88.816C38.7659 89.328 38.9579 90.08 38.9579 91.072V96H37.6459V91.248C37.6459 90.5227 37.5285 89.9947 37.2939 89.664C37.0592 89.3333 36.6859 89.168 36.1739 89.168C35.7792 89.168 35.4219 89.2693 35.1019 89.472C34.7925 89.6747 34.4405 89.9733 34.0459 90.368V96H32.7339ZM44.5079 96.192C43.8785 96.192 43.2865 96.032 42.7319 95.712C42.1879 95.392 41.7452 94.928 41.4039 94.32C41.0732 93.712 40.9079 92.9813 40.9079 92.128C40.9079 91.2533 41.0732 90.512 41.4039 89.904C41.7452 89.296 42.1879 88.832 42.7319 88.512C43.2865 88.192 43.8785 88.032 44.5079 88.032C45.1479 88.032 45.7399 88.192 46.2839 88.512C46.8279 88.832 47.2652 89.296 47.5959 89.904C47.9372 90.512 48.1079 91.2533 48.1079 92.128C48.1079 92.9813 47.9372 93.712 47.5959 94.32C47.2652 94.928 46.8279 95.392 46.2839 95.712C45.7399 96.032 45.1479 96.192 44.5079 96.192ZM44.5079 95.104C45.1799 95.104 45.7185 94.832 46.1239 94.288C46.5399 93.7333 46.7479 93.0133 46.7479 92.128C46.7479 91.232 46.5399 90.5067 46.1239 89.952C45.7185 89.3973 45.1799 89.12 44.5079 89.12C43.8465 89.12 43.3079 89.3973 42.8919 89.952C42.4759 90.5067 42.2679 91.232 42.2679 92.128C42.2679 93.0133 42.4759 93.7333 42.8919 94.288C43.3079 94.832 43.8465 95.104 44.5079 95.104ZM51.3253 96L49.1653 88.224H50.5093L51.6613 92.72C51.7466 93.0827 51.8266 93.4453 51.9013 93.808C51.9759 94.16 52.0506 94.5173 52.1253 94.88H52.1893C52.2746 94.5173 52.3599 94.16 52.4453 93.808C52.5306 93.4453 52.6213 93.0827 52.7173 92.72L53.9173 88.224H55.1973L56.4133 92.72C56.5093 93.0827 56.5999 93.4453 56.6853 93.808C56.7813 94.16 56.8719 94.5173 56.9573 94.88H57.0213C57.1066 94.5173 57.1866 94.16 57.2613 93.808C57.3466 93.4453 57.4266 93.0827 57.5013 92.72L58.6373 88.224H59.8853L57.8053 96H56.2053L55.0853 91.824C54.9893 91.4507 54.8986 91.0827 54.8133 90.72C54.7386 90.3573 54.6533 89.9787 54.5573 89.584H54.4933C54.4079 89.9787 54.3226 90.3627 54.2373 90.736C54.1519 91.0987 54.0559 91.4667 53.9493 91.84L52.8613 96H51.3253ZM66.1728 96.192C65.6821 96.192 65.3248 96.0427 65.1008 95.744C64.8874 95.4347 64.7808 94.9973 64.7808 94.432V84.608H66.0928V94.528C66.0928 94.7307 66.1301 94.88 66.2048 94.976C66.2794 95.0613 66.3648 95.104 66.4608 95.104C66.5034 95.104 66.5408 95.104 66.5728 95.104C66.6154 95.0933 66.6741 95.0827 66.7488 95.072L66.9248 96.064C66.8394 96.1067 66.7381 96.1387 66.6208 96.16C66.5034 96.1813 66.3541 96.192 66.1728 96.192ZM68.8589 96V88.224H70.1709V96H68.8589ZM69.5309 86.624C69.2749 86.624 69.0615 86.5493 68.8909 86.4C68.7309 86.24 68.6509 86.0267 68.6509 85.76C68.6509 85.504 68.7309 85.296 68.8909 85.136C69.0615 84.976 69.2749 84.896 69.5309 84.896C69.7869 84.896 69.9949 84.976 70.1549 85.136C70.3255 85.296 70.4109 85.504 70.4109 85.76C70.4109 86.0267 70.3255 86.24 70.1549 86.4C69.9949 86.5493 69.7869 86.624 69.5309 86.624ZM73.0204 96V89.296H71.9644V88.304L73.0204 88.224V86.992C73.0204 86.2027 73.2017 85.5787 73.5644 85.12C73.9377 84.6507 74.5137 84.416 75.2924 84.416C75.5377 84.416 75.7724 84.4427 75.9964 84.496C76.2204 84.5387 76.4177 84.5973 76.5884 84.672L76.3004 85.68C76.0124 85.552 75.719 85.488 75.4204 85.488C74.695 85.488 74.3324 85.9893 74.3324 86.992V88.224H75.9804V89.296H74.3324V96H73.0204ZM80.464 96.192C79.7707 96.192 79.1413 96.032 78.576 95.712C78.0107 95.3813 77.5627 94.912 77.232 94.304C76.9013 93.696 76.736 92.9707 76.736 92.128C76.736 91.2747 76.9013 90.544 77.232 89.936C77.5733 89.328 78.0107 88.8587 78.544 88.528C79.0773 88.1973 79.6373 88.032 80.224 88.032C81.216 88.032 81.9787 88.3627 82.512 89.024C83.056 89.6853 83.328 90.5707 83.328 91.68C83.328 91.8187 83.3227 91.9573 83.312 92.096C83.312 92.224 83.3013 92.336 83.28 92.432H78.032C78.0853 93.2533 78.3413 93.9093 78.8 94.4C79.2693 94.8907 79.8773 95.136 80.624 95.136C80.9973 95.136 81.3387 95.0827 81.648 94.976C81.968 94.8587 82.272 94.7093 82.56 94.528L83.024 95.392C82.6933 95.6053 82.3147 95.792 81.888 95.952C81.472 96.112 80.9973 96.192 80.464 96.192ZM78.016 91.488H82.176C82.176 90.6987 82.0053 90.1013 81.664 89.696C81.3333 89.28 80.864 89.072 80.256 89.072C79.712 89.072 79.2213 89.2853 78.784 89.712C78.3573 90.128 78.1013 90.72 78.016 91.488ZM88.4526 96V84.608H89.7646V87.712L89.7166 89.312C90.09 88.96 90.4793 88.6613 90.8846 88.416C91.3006 88.16 91.7753 88.032 92.3086 88.032C93.13 88.032 93.7273 88.2933 94.1006 88.816C94.4846 89.328 94.6766 90.08 94.6766 91.072V96H93.3646V91.248C93.3646 90.5227 93.2473 89.9947 93.0126 89.664C92.778 89.3333 92.4046 89.168 91.8926 89.168C91.498 89.168 91.1406 89.2693 90.8206 89.472C90.5113 89.6747 90.1593 89.9733 89.7646 90.368V96H88.4526ZM98.9478 96.192C98.2971 96.192 97.7531 96 97.3158 95.616C96.8891 95.2213 96.6758 94.6773 96.6758 93.984C96.6758 93.1307 97.0544 92.48 97.8118 92.032C98.5798 91.5733 99.7904 91.2533 101.444 91.072C101.444 90.7413 101.396 90.4267 101.3 90.128C101.214 89.8293 101.054 89.5893 100.82 89.408C100.596 89.216 100.27 89.12 99.8438 89.12C99.3958 89.12 98.9744 89.2053 98.5798 89.376C98.1851 89.5467 97.8331 89.7387 97.5238 89.952L97.0118 89.04C97.3744 88.8053 97.8171 88.5813 98.3398 88.368C98.8731 88.144 99.4491 88.032 100.068 88.032C101.017 88.032 101.705 88.3253 102.132 88.912C102.558 89.488 102.772 90.2613 102.772 91.232V96H101.684L101.572 95.072H101.524C101.161 95.3707 100.761 95.632 100.324 95.856C99.8971 96.08 99.4384 96.192 98.9478 96.192ZM99.3318 95.136C99.7051 95.136 100.057 95.0453 100.388 94.864C100.718 94.6827 101.07 94.4267 101.444 94.096V91.936C100.153 92.096 99.2464 92.336 98.7238 92.656C98.2118 92.976 97.9557 93.3867 97.9557 93.888C97.9557 94.3253 98.0891 94.6453 98.3558 94.848C98.6224 95.04 98.9478 95.136 99.3318 95.136ZM105.218 99.28V88.224H106.306L106.418 89.12H106.466C106.818 88.8213 107.202 88.5653 107.618 88.352C108.045 88.1387 108.488 88.032 108.946 88.032C109.949 88.032 110.712 88.3947 111.234 89.12C111.757 89.8347 112.018 90.7947 112.018 92C112.018 92.8747 111.858 93.6267 111.538 94.256C111.229 94.8853 110.818 95.3653 110.306 95.696C109.805 96.0267 109.256 96.192 108.658 96.192C108.296 96.192 107.933 96.112 107.57 95.952C107.218 95.792 106.861 95.5733 106.498 95.296L106.53 96.656V99.28H105.218ZM108.434 95.088C109.074 95.088 109.602 94.816 110.018 94.272C110.445 93.7173 110.658 92.96 110.658 92C110.658 91.1467 110.498 90.4587 110.178 89.936C109.869 89.4027 109.346 89.136 108.61 89.136C108.28 89.136 107.944 89.2267 107.602 89.408C107.272 89.5893 106.914 89.8507 106.53 90.192V94.272C106.882 94.5707 107.224 94.784 107.554 94.912C107.885 95.0293 108.178 95.088 108.434 95.088ZM114.093 99.28V88.224H115.181L115.293 89.12H115.341C115.693 88.8213 116.077 88.5653 116.493 88.352C116.92 88.1387 117.363 88.032 117.821 88.032C118.824 88.032 119.587 88.3947 120.109 89.12C120.632 89.8347 120.893 90.7947 120.893 92C120.893 92.8747 120.733 93.6267 120.413 94.256C120.104 94.8853 119.693 95.3653 119.181 95.696C118.68 96.0267 118.131 96.192 117.533 96.192C117.171 96.192 116.808 96.112 116.445 95.952C116.093 95.792 115.736 95.5733 115.373 95.296L115.405 96.656V99.28H114.093ZM117.309 95.088C117.949 95.088 118.477 94.816 118.893 94.272C119.32 93.7173 119.533 92.96 119.533 92C119.533 91.1467 119.373 90.4587 119.053 89.936C118.744 89.4027 118.221 89.136 117.485 89.136C117.155 89.136 116.819 89.2267 116.477 89.408C116.147 89.5893 115.789 89.8507 115.405 90.192V94.272C115.757 94.5707 116.099 94.784 116.429 94.912C116.76 95.0293 117.053 95.088 117.309 95.088ZM126.12 96.192C125.427 96.192 124.798 96.032 124.232 95.712C123.667 95.3813 123.219 94.912 122.888 94.304C122.558 93.696 122.392 92.9707 122.392 92.128C122.392 91.2747 122.558 90.544 122.888 89.936C123.23 89.328 123.667 88.8587 124.2 88.528C124.734 88.1973 125.294 88.032 125.88 88.032C126.872 88.032 127.635 88.3627 128.168 89.024C128.712 89.6853 128.984 90.5707 128.984 91.68C128.984 91.8187 128.979 91.9573 128.968 92.096C128.968 92.224 128.958 92.336 128.936 92.432H123.688C123.742 93.2533 123.998 93.9093 124.456 94.4C124.926 94.8907 125.534 95.136 126.28 95.136C126.654 95.136 126.995 95.0827 127.304 94.976C127.624 94.8587 127.928 94.7093 128.216 94.528L128.68 95.392C128.35 95.6053 127.971 95.792 127.544 95.952C127.128 96.112 126.654 96.192 126.12 96.192ZM123.672 91.488H127.832C127.832 90.6987 127.662 90.1013 127.32 89.696C126.99 89.28 126.52 89.072 125.912 89.072C125.368 89.072 124.878 89.2853 124.44 89.712C124.014 90.128 123.758 90.72 123.672 91.488ZM130.906 96V88.224H131.994L132.106 89.344H132.154C132.527 88.9707 132.922 88.6613 133.338 88.416C133.754 88.16 134.228 88.032 134.762 88.032C135.583 88.032 136.18 88.2933 136.554 88.816C136.938 89.328 137.13 90.08 137.13 91.072V96H135.818V91.248C135.818 90.5227 135.7 89.9947 135.466 89.664C135.231 89.3333 134.858 89.168 134.346 89.168C133.951 89.168 133.594 89.2693 133.274 89.472C132.964 89.6747 132.612 89.9733 132.218 90.368V96H130.906ZM141.688 96.192C141.133 96.192 140.605 96.0907 140.104 95.888C139.602 95.6747 139.165 95.4187 138.792 95.12L139.448 94.24C139.789 94.5067 140.141 94.7307 140.504 94.912C140.866 95.0827 141.277 95.168 141.736 95.168C142.248 95.168 142.632 95.0507 142.888 94.816C143.144 94.5707 143.272 94.2827 143.272 93.952C143.272 93.6853 143.181 93.4613 143 93.28C142.829 93.0987 142.605 92.9493 142.328 92.832C142.061 92.704 141.784 92.5867 141.496 92.48C141.133 92.3413 140.776 92.1867 140.424 92.016C140.072 91.8347 139.784 91.6053 139.56 91.328C139.336 91.04 139.224 90.6773 139.224 90.24C139.224 89.6107 139.458 89.088 139.928 88.672C140.408 88.2453 141.069 88.032 141.912 88.032C142.392 88.032 142.84 88.1173 143.256 88.288C143.672 88.4587 144.029 88.6667 144.328 88.912L143.688 89.744C143.421 89.5413 143.144 89.376 142.856 89.248C142.568 89.12 142.253 89.056 141.912 89.056C141.421 89.056 141.058 89.168 140.824 89.392C140.6 89.616 140.488 89.8773 140.488 90.176C140.488 90.4213 140.568 90.624 140.728 90.784C140.888 90.9333 141.096 91.0667 141.352 91.184C141.608 91.2907 141.88 91.4027 142.168 91.52C142.541 91.6587 142.909 91.8187 143.272 92C143.634 92.1707 143.933 92.4053 144.168 92.704C144.413 92.992 144.536 93.3813 144.536 93.872C144.536 94.288 144.424 94.672 144.2 95.024C143.986 95.376 143.666 95.6587 143.24 95.872C142.824 96.0853 142.306 96.192 141.688 96.192ZM151.594 96.192C151.039 96.192 150.511 96.0907 150.01 95.888C149.509 95.6747 149.071 95.4187 148.698 95.12L149.354 94.24C149.695 94.5067 150.047 94.7307 150.41 94.912C150.773 95.0827 151.183 95.168 151.642 95.168C152.154 95.168 152.538 95.0507 152.794 94.816C153.05 94.5707 153.178 94.2827 153.178 93.952C153.178 93.6853 153.087 93.4613 152.906 93.28C152.735 93.0987 152.511 92.9493 152.234 92.832C151.967 92.704 151.69 92.5867 151.402 92.48C151.039 92.3413 150.682 92.1867 150.33 92.016C149.978 91.8347 149.69 91.6053 149.466 91.328C149.242 91.04 149.13 90.6773 149.13 90.24C149.13 89.6107 149.365 89.088 149.834 88.672C150.314 88.2453 150.975 88.032 151.818 88.032C152.298 88.032 152.746 88.1173 153.162 88.288C153.578 88.4587 153.935 88.6667 154.234 88.912L153.594 89.744C153.327 89.5413 153.05 89.376 152.762 89.248C152.474 89.12 152.159 89.056 151.818 89.056C151.327 89.056 150.965 89.168 150.73 89.392C150.506 89.616 150.394 89.8773 150.394 90.176C150.394 90.4213 150.474 90.624 150.634 90.784C150.794 90.9333 151.002 91.0667 151.258 91.184C151.514 91.2907 151.786 91.4027 152.074 91.52C152.447 91.6587 152.815 91.8187 153.178 92C153.541 92.1707 153.839 92.4053 154.074 92.704C154.319 92.992 154.442 93.3813 154.442 93.872C154.442 94.288 154.33 94.672 154.106 95.024C153.893 95.376 153.573 95.6587 153.146 95.872C152.73 96.0853 152.213 96.192 151.594 96.192ZM159.289 96.192C158.66 96.192 158.068 96.032 157.513 95.712C156.969 95.392 156.526 94.928 156.185 94.32C155.854 93.712 155.689 92.9813 155.689 92.128C155.689 91.2533 155.854 90.512 156.185 89.904C156.526 89.296 156.969 88.832 157.513 88.512C158.068 88.192 158.66 88.032 159.289 88.032C159.929 88.032 160.521 88.192 161.065 88.512C161.609 88.832 162.046 89.296 162.377 89.904C162.718 90.512 162.889 91.2533 162.889 92.128C162.889 92.9813 162.718 93.712 162.377 94.32C162.046 94.928 161.609 95.392 161.065 95.712C160.521 96.032 159.929 96.192 159.289 96.192ZM159.289 95.104C159.961 95.104 160.5 94.832 160.905 94.288C161.321 93.7333 161.529 93.0133 161.529 92.128C161.529 91.232 161.321 90.5067 160.905 89.952C160.5 89.3973 159.961 89.12 159.289 89.12C158.628 89.12 158.089 89.3973 157.673 89.952C157.257 90.5067 157.049 91.232 157.049 92.128C157.049 93.0133 157.257 93.7333 157.673 94.288C158.089 94.832 158.628 95.104 159.289 95.104ZM168.14 96V84.608H169.436V92.32H169.484L172.796 88.224H174.252L171.644 91.344L174.604 96H173.164L170.892 92.256L169.436 93.952V96H168.14ZM178.933 96.192C178.239 96.192 177.61 96.032 177.045 95.712C176.479 95.3813 176.031 94.912 175.701 94.304C175.37 93.696 175.205 92.9707 175.205 92.128C175.205 91.2747 175.37 90.544 175.701 89.936C176.042 89.328 176.479 88.8587 177.013 88.528C177.546 88.1973 178.106 88.032 178.693 88.032C179.685 88.032 180.447 88.3627 180.981 89.024C181.525 89.6853 181.797 90.5707 181.797 91.68C181.797 91.8187 181.791 91.9573 181.781 92.096C181.781 92.224 181.77 92.336 181.749 92.432H176.501C176.554 93.2533 176.81 93.9093 177.269 94.4C177.738 94.8907 178.346 95.136 179.093 95.136C179.466 95.136 179.807 95.0827 180.117 94.976C180.437 94.8587 180.741 94.7093 181.029 94.528L181.493 95.392C181.162 95.6053 180.783 95.792 180.357 95.952C179.941 96.112 179.466 96.192 178.933 96.192ZM176.485 91.488H180.645C180.645 90.6987 180.474 90.1013 180.133 89.696C179.802 89.28 179.333 89.072 178.725 89.072C178.181 89.072 177.69 89.2853 177.253 89.712C176.826 90.128 176.57 90.72 176.485 91.488ZM186.87 96.192C186.177 96.192 185.548 96.032 184.982 95.712C184.417 95.3813 183.969 94.912 183.638 94.304C183.308 93.696 183.142 92.9707 183.142 92.128C183.142 91.2747 183.308 90.544 183.638 89.936C183.98 89.328 184.417 88.8587 184.95 88.528C185.484 88.1973 186.044 88.032 186.63 88.032C187.622 88.032 188.385 88.3627 188.918 89.024C189.462 89.6853 189.734 90.5707 189.734 91.68C189.734 91.8187 189.729 91.9573 189.718 92.096C189.718 92.224 189.708 92.336 189.686 92.432H184.438C184.492 93.2533 184.748 93.9093 185.206 94.4C185.676 94.8907 186.284 95.136 187.03 95.136C187.404 95.136 187.745 95.0827 188.054 94.976C188.374 94.8587 188.678 94.7093 188.966 94.528L189.43 95.392C189.1 95.6053 188.721 95.792 188.294 95.952C187.878 96.112 187.404 96.192 186.87 96.192ZM184.422 91.488H188.582C188.582 90.6987 188.412 90.1013 188.07 89.696C187.74 89.28 187.27 89.072 186.662 89.072C186.118 89.072 185.628 89.2853 185.19 89.712C184.764 90.128 184.508 90.72 184.422 91.488ZM191.656 99.28V88.224H192.744L192.856 89.12H192.904C193.256 88.8213 193.64 88.5653 194.056 88.352C194.482 88.1387 194.925 88.032 195.384 88.032C196.386 88.032 197.149 88.3947 197.672 89.12C198.194 89.8347 198.456 90.7947 198.456 92C198.456 92.8747 198.296 93.6267 197.976 94.256C197.666 94.8853 197.256 95.3653 196.744 95.696C196.242 96.0267 195.693 96.192 195.096 96.192C194.733 96.192 194.37 96.112 194.008 95.952C193.656 95.792 193.298 95.5733 192.936 95.296L192.968 96.656V99.28H191.656ZM194.872 95.088C195.512 95.088 196.04 94.816 196.456 94.272C196.882 93.7173 197.096 92.96 197.096 92C197.096 91.1467 196.936 90.4587 196.616 89.936C196.306 89.4027 195.784 89.136 195.048 89.136C194.717 89.136 194.381 89.2267 194.04 89.408C193.709 89.5893 193.352 89.8507 192.968 90.192V94.272C193.32 94.5707 193.661 94.784 193.992 94.912C194.322 95.0293 194.616 95.088 194.872 95.088ZM35.315 123.344C35.1443 123.344 34.979 123.328 34.819 123.296C34.6697 123.264 34.531 123.227 34.403 123.184L34.659 122.144C34.7443 122.165 34.8403 122.187 34.947 122.208C35.0537 122.24 35.155 122.256 35.251 122.256C35.6883 122.256 36.051 122.096 36.339 121.776C36.627 121.467 36.851 121.072 37.011 120.592L37.187 120.016L34.067 112.224H35.427L37.011 116.528C37.1283 116.859 37.251 117.216 37.379 117.6C37.5177 117.984 37.6457 118.357 37.763 118.72H37.827C37.9443 118.368 38.0563 118 38.163 117.616C38.2697 117.232 38.3763 116.869 38.483 116.528L39.875 112.224H41.155L38.227 120.64C38.0457 121.152 37.827 121.611 37.571 122.016C37.3257 122.421 37.0163 122.741 36.643 122.976C36.2803 123.221 35.8377 123.344 35.315 123.344ZM45.6173 120.192C44.9879 120.192 44.3959 120.032 43.8413 119.712C43.2973 119.392 42.8546 118.928 42.5133 118.32C42.1826 117.712 42.0173 116.981 42.0173 116.128C42.0173 115.253 42.1826 114.512 42.5133 113.904C42.8546 113.296 43.2973 112.832 43.8413 112.512C44.3959 112.192 44.9879 112.032 45.6173 112.032C46.2573 112.032 46.8493 112.192 47.3933 112.512C47.9373 112.832 48.3746 113.296 48.7053 113.904C49.0466 114.512 49.2173 115.253 49.2173 116.128C49.2173 116.981 49.0466 117.712 48.7053 118.32C48.3746 118.928 47.9373 119.392 47.3933 119.712C46.8493 120.032 46.2573 120.192 45.6173 120.192ZM45.6173 119.104C46.2893 119.104 46.8279 118.832 47.2333 118.288C47.6493 117.733 47.8573 117.013 47.8573 116.128C47.8573 115.232 47.6493 114.507 47.2333 113.952C46.8279 113.397 46.2893 113.12 45.6173 113.12C44.9559 113.12 44.4173 113.397 44.0013 113.952C43.5853 114.507 43.3773 115.232 43.3773 116.128C43.3773 117.013 43.5853 117.733 44.0013 118.288C44.4173 118.832 44.9559 119.104 45.6173 119.104ZM53.5371 120.192C52.7158 120.192 52.1131 119.936 51.7291 119.424C51.3451 118.901 51.1531 118.144 51.1531 117.152V112.224H52.4811V116.976C52.4811 117.701 52.5931 118.229 52.8171 118.56C53.0518 118.891 53.4251 119.056 53.9371 119.056C54.3425 119.056 54.6998 118.955 55.0091 118.752C55.3291 118.539 55.6705 118.203 56.0331 117.744V112.224H57.3451V120H56.2571L56.1451 118.784H56.0971C55.7345 119.211 55.3505 119.552 54.9451 119.808C54.5398 120.064 54.0705 120.192 53.5371 120.192ZM59.9683 120V112.224H61.0563L61.1683 113.632H61.2163C61.4829 113.141 61.8083 112.752 62.1923 112.464C62.5763 112.176 62.9869 112.032 63.4243 112.032C63.7336 112.032 64.0109 112.085 64.2563 112.192L64.0003 113.344C63.8723 113.301 63.7549 113.269 63.6483 113.248C63.5416 113.227 63.4083 113.216 63.2483 113.216C62.9176 113.216 62.5709 113.349 62.2083 113.616C61.8563 113.883 61.5469 114.347 61.2803 115.008V120H59.9683ZM71.1663 120.192C70.3343 120.192 69.7529 119.952 69.4223 119.472C69.1023 118.992 68.9423 118.368 68.9423 117.6V113.296H67.7903V112.304L69.0063 112.224L69.1663 110.048H70.2703V112.224H72.3663V113.296H70.2703V117.616C70.2703 118.096 70.3556 118.469 70.5263 118.736C70.7076 118.992 71.0223 119.12 71.4703 119.12C71.6089 119.12 71.7583 119.099 71.9183 119.056C72.0783 119.003 72.2223 118.955 72.3503 118.912L72.6063 119.904C72.3929 119.979 72.1583 120.043 71.9023 120.096C71.6569 120.16 71.4116 120.192 71.1663 120.192ZM77.0578 120.192C76.3644 120.192 75.7351 120.032 75.1698 119.712C74.6044 119.381 74.1564 118.912 73.8258 118.304C73.4951 117.696 73.3298 116.971 73.3298 116.128C73.3298 115.275 73.4951 114.544 73.8258 113.936C74.1671 113.328 74.6044 112.859 75.1378 112.528C75.6711 112.197 76.2311 112.032 76.8177 112.032C77.8098 112.032 78.5724 112.363 79.1058 113.024C79.6498 113.685 79.9218 114.571 79.9218 115.68C79.9218 115.819 79.9164 115.957 79.9058 116.096C79.9058 116.224 79.8951 116.336 79.8738 116.432H74.6258C74.6791 117.253 74.9351 117.909 75.3938 118.4C75.8631 118.891 76.4711 119.136 77.2178 119.136C77.5911 119.136 77.9324 119.083 78.2418 118.976C78.5618 118.859 78.8658 118.709 79.1538 118.528L79.6178 119.392C79.2871 119.605 78.9084 119.792 78.4818 119.952C78.0658 120.112 77.5911 120.192 77.0578 120.192ZM74.6098 115.488H78.7698C78.7698 114.699 78.5991 114.101 78.2578 113.696C77.9271 113.28 77.4578 113.072 76.8498 113.072C76.3058 113.072 75.8151 113.285 75.3778 113.712C74.9511 114.128 74.6951 114.72 74.6098 115.488ZM83.4165 120.192C82.7658 120.192 82.2218 120 81.7845 119.616C81.3578 119.221 81.1445 118.677 81.1445 117.984C81.1445 117.131 81.5232 116.48 82.2805 116.032C83.0485 115.573 84.2592 115.253 85.9125 115.072C85.9125 114.741 85.8645 114.427 85.7685 114.128C85.6832 113.829 85.5232 113.589 85.2885 113.408C85.0645 113.216 84.7392 113.12 84.3125 113.12C83.8645 113.12 83.4432 113.205 83.0485 113.376C82.6538 113.547 82.3018 113.739 81.9925 113.952L81.4805 113.04C81.8432 112.805 82.2858 112.581 82.8085 112.368C83.3418 112.144 83.9178 112.032 84.5365 112.032C85.4858 112.032 86.1738 112.325 86.6005 112.912C87.0272 113.488 87.2405 114.261 87.2405 115.232V120H86.1525L86.0405 119.072H85.9925C85.6298 119.371 85.2298 119.632 84.7925 119.856C84.3658 120.08 83.9072 120.192 83.4165 120.192ZM83.8005 119.136C84.1738 119.136 84.5258 119.045 84.8565 118.864C85.1872 118.683 85.5392 118.427 85.9125 118.096V115.936C84.6218 116.096 83.7152 116.336 83.1925 116.656C82.6805 116.976 82.4245 117.387 82.4245 117.888C82.4245 118.325 82.5578 118.645 82.8245 118.848C83.0912 119.04 83.4165 119.136 83.8005 119.136ZM89.687 120V112.224H90.775L90.887 113.344H90.935C91.2763 112.971 91.6497 112.661 92.055 112.416C92.4603 112.16 92.8923 112.032 93.351 112.032C93.9483 112.032 94.4123 112.165 94.743 112.432C95.0843 112.688 95.335 113.051 95.495 113.52C95.9003 113.083 96.311 112.725 96.727 112.448C97.143 112.171 97.5857 112.032 98.055 112.032C98.855 112.032 99.447 112.293 99.831 112.816C100.226 113.328 100.423 114.08 100.423 115.072V120H99.111V115.248C99.111 114.523 98.9937 113.995 98.759 113.664C98.5243 113.333 98.1617 113.168 97.671 113.168C97.095 113.168 96.4443 113.568 95.719 114.368V120H94.407V115.248C94.407 114.523 94.2897 113.995 94.055 113.664C93.8203 113.333 93.4523 113.168 92.951 113.168C92.375 113.168 91.7243 113.568 90.999 114.368V120H89.687ZM108.428 120.192C107.606 120.192 107.004 119.936 106.62 119.424C106.236 118.901 106.044 118.144 106.044 117.152V112.224H107.372V116.976C107.372 117.701 107.484 118.229 107.708 118.56C107.942 118.891 108.316 119.056 108.828 119.056C109.233 119.056 109.59 118.955 109.9 118.752C110.22 118.539 110.561 118.203 110.924 117.744V112.224H112.236V120H111.148L111.036 118.784H110.988C110.625 119.211 110.241 119.552 109.836 119.808C109.43 120.064 108.961 120.192 108.428 120.192ZM114.859 123.28V112.224H115.947L116.059 113.12H116.107C116.459 112.821 116.843 112.565 117.259 112.352C117.686 112.139 118.128 112.032 118.587 112.032C119.59 112.032 120.352 112.395 120.875 113.12C121.398 113.835 121.659 114.795 121.659 116C121.659 116.875 121.499 117.627 121.179 118.256C120.87 118.885 120.459 119.365 119.947 119.696C119.446 120.027 118.896 120.192 118.299 120.192C117.936 120.192 117.574 120.112 117.211 119.952C116.859 119.792 116.502 119.573 116.139 119.296L116.171 120.656V123.28H114.859ZM118.075 119.088C118.715 119.088 119.243 118.816 119.659 118.272C120.086 117.717 120.299 116.96 120.299 116C120.299 115.147 120.139 114.459 119.819 113.936C119.51 113.403 118.987 113.136 118.251 113.136C117.92 113.136 117.584 113.227 117.243 113.408C116.912 113.589 116.555 113.851 116.171 114.192V118.272C116.523 118.571 116.864 118.784 117.195 118.912C117.526 119.029 117.819 119.088 118.075 119.088ZM126.39 120.192C125.419 120.192 124.641 119.84 124.054 119.136C123.467 118.421 123.174 117.419 123.174 116.128C123.174 115.285 123.329 114.56 123.638 113.952C123.958 113.333 124.374 112.859 124.886 112.528C125.409 112.197 125.963 112.032 126.55 112.032C126.998 112.032 127.387 112.112 127.718 112.272C128.049 112.432 128.385 112.651 128.726 112.928L128.662 111.6V108.608H129.99V120H128.902L128.79 119.088H128.742C128.443 119.387 128.091 119.648 127.686 119.872C127.281 120.085 126.849 120.192 126.39 120.192ZM126.678 119.088C127.361 119.088 128.022 118.731 128.662 118.016V113.952C128.331 113.653 128.011 113.445 127.702 113.328C127.403 113.2 127.094 113.136 126.774 113.136C126.358 113.136 125.979 113.264 125.638 113.52C125.307 113.765 125.041 114.112 124.838 114.56C124.635 114.997 124.534 115.515 124.534 116.112C124.534 117.04 124.721 117.771 125.094 118.304C125.467 118.827 125.995 119.088 126.678 119.088ZM134.401 120.192C133.75 120.192 133.206 120 132.769 119.616C132.342 119.221 132.129 118.677 132.129 117.984C132.129 117.131 132.508 116.48 133.265 116.032C134.033 115.573 135.244 115.253 136.897 115.072C136.897 114.741 136.849 114.427 136.753 114.128C136.668 113.829 136.508 113.589 136.273 113.408C136.049 113.216 135.724 113.12 135.297 113.12C134.849 113.12 134.428 113.205 134.033 113.376C133.638 113.547 133.286 113.739 132.977 113.952L132.465 113.04C132.828 112.805 133.27 112.581 133.793 112.368C134.326 112.144 134.902 112.032 135.521 112.032C136.47 112.032 137.158 112.325 137.585 112.912C138.012 113.488 138.225 114.261 138.225 115.232V120H137.137L137.025 119.072H136.977C136.614 119.371 136.214 119.632 135.777 119.856C135.35 120.08 134.892 120.192 134.401 120.192ZM134.785 119.136C135.158 119.136 135.51 119.045 135.841 118.864C136.172 118.683 136.524 118.427 136.897 118.096V115.936C135.606 116.096 134.7 116.336 134.177 116.656C133.665 116.976 133.409 117.387 133.409 117.888C133.409 118.325 133.542 118.645 133.809 118.848C134.076 119.04 134.401 119.136 134.785 119.136ZM142.901 120.192C142.069 120.192 141.487 119.952 141.157 119.472C140.837 118.992 140.677 118.368 140.677 117.6V113.296H139.525V112.304L140.741 112.224L140.901 110.048H142.005V112.224H144.101V113.296H142.005V117.616C142.005 118.096 142.09 118.469 142.261 118.736C142.442 118.992 142.757 119.12 143.205 119.12C143.343 119.12 143.493 119.099 143.653 119.056C143.813 119.003 143.957 118.955 144.085 118.912L144.341 119.904C144.127 119.979 143.893 120.043 143.637 120.096C143.391 120.16 143.146 120.192 142.901 120.192ZM148.792 120.192C148.099 120.192 147.469 120.032 146.904 119.712C146.339 119.381 145.891 118.912 145.56 118.304C145.229 117.696 145.064 116.971 145.064 116.128C145.064 115.275 145.229 114.544 145.56 113.936C145.901 113.328 146.339 112.859 146.872 112.528C147.405 112.197 147.965 112.032 148.552 112.032C149.544 112.032 150.307 112.363 150.84 113.024C151.384 113.685 151.656 114.571 151.656 115.68C151.656 115.819 151.651 115.957 151.64 116.096C151.64 116.224 151.629 116.336 151.608 116.432H146.36C146.413 117.253 146.669 117.909 147.128 118.4C147.597 118.891 148.205 119.136 148.952 119.136C149.325 119.136 149.667 119.083 149.976 118.976C150.296 118.859 150.6 118.709 150.888 118.528L151.352 119.392C151.021 119.605 150.643 119.792 150.216 119.952C149.8 120.112 149.325 120.192 148.792 120.192ZM146.344 115.488H150.504C150.504 114.699 150.333 114.101 149.992 113.696C149.661 113.28 149.192 113.072 148.584 113.072C148.04 113.072 147.549 113.285 147.112 113.712C146.685 114.128 146.429 114.72 146.344 115.488ZM156.234 120.192C155.263 120.192 154.484 119.84 153.898 119.136C153.311 118.421 153.018 117.419 153.018 116.128C153.018 115.285 153.172 114.56 153.482 113.952C153.802 113.333 154.218 112.859 154.73 112.528C155.252 112.197 155.807 112.032 156.394 112.032C156.842 112.032 157.231 112.112 157.562 112.272C157.892 112.432 158.228 112.651 158.57 112.928L158.506 111.6V108.608H159.834V120H158.746L158.634 119.088H158.586C158.287 119.387 157.935 119.648 157.53 119.872C157.124 120.085 156.692 120.192 156.234 120.192ZM156.522 119.088C157.204 119.088 157.866 118.731 158.506 118.016V113.952C158.175 113.653 157.855 113.445 157.546 113.328C157.247 113.2 156.938 113.136 156.618 113.136C156.202 113.136 155.823 113.264 155.482 113.52C155.151 113.765 154.884 114.112 154.682 114.56C154.479 114.997 154.378 115.515 154.378 116.112C154.378 117.04 154.564 117.771 154.938 118.304C155.311 118.827 155.839 119.088 156.522 119.088ZM163.141 120.192C162.874 120.192 162.645 120.101 162.453 119.92C162.271 119.728 162.181 119.488 162.181 119.2C162.181 118.891 162.271 118.645 162.453 118.464C162.645 118.272 162.874 118.176 163.141 118.176C163.397 118.176 163.615 118.272 163.797 118.464C163.989 118.645 164.085 118.891 164.085 119.2C164.085 119.488 163.989 119.728 163.797 119.92C163.615 120.101 163.397 120.192 163.141 120.192Z" fill="#001426"/>
</svg>
