<svg width="15" height="22" viewBox="0 0 15 22" fill="none" xmlns="http://www.w3.org/2000/svg">
<path d="M4.5 17H10.5" stroke="#D90000" stroke-width="2" stroke-linecap="round" stroke-linejoin="round"/>
<path d="M5.5 21H9.5" stroke="#D90000" stroke-width="2" stroke-linecap="round" stroke-linejoin="round"/>
<path d="M10.59 13C10.77 12.02 11.24 11.26 12 10.5C12.4829 10.0555 12.8662 9.51382 13.1247 8.91058C13.3832 8.30734 13.5111 7.65621 13.5 7C13.5 5.4087 12.8679 3.88258 11.7426 2.75736C10.6174 1.63214 9.0913 1 7.5 1C5.9087 1 4.38258 1.63214 3.25736 2.75736C2.13214 3.88258 1.5 5.4087 1.5 7C1.5 8 1.73 9.23 3 10.5C3.72405 11.1621 4.218 12.0379 4.41 13" stroke="#D90000" stroke-width="2" stroke-linecap="round" stroke-linejoin="round"/>
</svg>
