<svg width="23" height="23" viewBox="0 0 23 23" fill="none" xmlns="http://www.w3.org/2000/svg">
<path d="M10.5 4H3.5C2.96957 4 2.46086 4.21071 2.08579 4.58579C1.71071 4.96086 1.5 5.46957 1.5 6V20C1.5 20.5304 1.71071 21.0391 2.08579 21.4142C2.46086 21.7893 2.96957 22 3.5 22H17.5C18.0304 22 18.5391 21.7893 18.9142 21.4142C19.2893 21.0391 19.5 20.5304 19.5 20V13" stroke="#D90000" stroke-width="2" stroke-linecap="round" stroke-linejoin="round"/>
<path d="M18 2.50001C18.3978 2.10219 18.9374 1.87869 19.5 1.87869C20.0626 1.87869 20.6022 2.10219 21 2.50001C21.3978 2.89784 21.6213 3.4374 21.6213 4.00001C21.6213 4.56262 21.3978 5.10219 21 5.50001L11.5 15L7.5 16L8.5 12L18 2.50001Z" stroke="#D90000" stroke-width="2" stroke-linecap="round" stroke-linejoin="round"/>
</svg>
