<svg width="24" height="24" viewBox="0 0 24 24" fill="none" xmlns="http://www.w3.org/2000/svg">
<path fill-rule="evenodd" clip-rule="evenodd" d="M6.66699 15.1164C6.66699 13.7183 7.72418 12.5928 9.03736 12.5928C10.3505 12.5928 11.4077 13.7183 11.4077 15.1164V21.3284C11.4077 22.7265 10.3505 23.852 9.03736 23.852C7.72418 23.852 6.66699 22.7265 6.66699 21.3284V15.1164Z" fill="#E01E5A" stroke="#E01E5A" stroke-width="0.790123" stroke-linecap="round" stroke-linejoin="round"/>
<path fill-rule="evenodd" clip-rule="evenodd" d="M15.1164 17.3333C13.7183 17.3333 12.5928 16.2761 12.5928 14.963C12.5928 13.6498 13.7183 12.5926 15.1164 12.5926H21.3284C22.7265 12.5926 23.852 13.6498 23.852 14.963C23.852 16.2761 22.7265 17.3333 21.3284 17.3333H15.1164Z" fill="#ECB22D" stroke="#ECB22D" stroke-width="0.790123" stroke-linecap="round" stroke-linejoin="round"/>
<path fill-rule="evenodd" clip-rule="evenodd" d="M12.5928 2.67176C12.5928 1.27369 13.65 0.148148 14.9631 0.148148C16.2763 0.148148 17.3335 1.27369 17.3335 2.67176V8.88376C17.3335 10.2819 16.2763 11.4074 14.9631 11.4074C13.65 11.4074 12.5928 10.2819 12.5928 8.88376V2.67176Z" fill="#2FB67C" stroke="#2FB67C" stroke-width="0.790123" stroke-linecap="round" stroke-linejoin="round"/>
<path fill-rule="evenodd" clip-rule="evenodd" d="M2.67205 11.4072C1.27398 11.4072 0.148438 10.3501 0.148438 9.03687C0.148438 7.72369 1.27398 6.6665 2.67205 6.6665H8.88405C10.2822 6.6665 11.4077 7.72369 11.4077 9.03687C11.4077 10.3501 10.2822 11.4072 8.88405 11.4072H2.67205Z" fill="#36C5F1" stroke="#36C5F1" stroke-width="0.790123" stroke-linecap="round" stroke-linejoin="round"/>
<path fill-rule="evenodd" clip-rule="evenodd" d="M12.5928 21.4813C12.5921 21.7927 12.653 22.1013 12.7719 22.3892C12.8907 22.677 13.0653 22.9386 13.2856 23.1589C13.5058 23.3791 13.7674 23.5537 14.0553 23.6726C14.3431 23.7915 14.6517 23.8523 14.9631 23.8516C16.2763 23.8516 17.3335 22.7945 17.3335 21.4813C17.3342 21.1698 17.2733 20.8613 17.1544 20.5734C17.0355 20.2855 16.861 20.0239 16.6407 19.8037C16.4205 19.5834 16.1589 19.4089 15.871 19.29C15.5831 19.1711 15.2746 19.1102 14.9631 19.1109H12.5928V21.4813Z" fill="#ECB22D" stroke="#ECB22D" stroke-width="0.790123" stroke-linecap="round"/>
<path fill-rule="evenodd" clip-rule="evenodd" d="M21.4817 11.4072H19.1113V9.03684C19.1113 7.72366 20.1685 6.66647 21.4817 6.66647C22.7949 6.66647 23.8521 7.72366 23.8521 9.03684C23.8521 10.35 22.7949 11.4072 21.4817 11.4072Z" fill="#2FB67C" stroke="#2FB67C" stroke-width="0.790123" stroke-linecap="round"/>
<path fill-rule="evenodd" clip-rule="evenodd" d="M2.51881 12.5924H4.88918V14.9628C4.88918 16.2759 3.832 17.3331 2.51881 17.3331C2.20735 17.3338 1.89881 17.2729 1.61093 17.1541C1.32304 17.0352 1.06147 16.8606 0.841227 16.6403C0.620986 16.4201 0.446411 16.1585 0.327524 15.8706C0.208637 15.5828 0.147779 15.2742 0.148443 14.9628C0.148443 13.6496 1.20563 12.5924 2.51881 12.5924Z" fill="#E01E5A" stroke="#E01E5A" stroke-width="0.790123" stroke-linecap="round"/>
<path fill-rule="evenodd" clip-rule="evenodd" d="M11.4077 2.51832V4.88869H9.03737C8.7259 4.88936 8.41737 4.8285 8.12948 4.70961C7.84159 4.59073 7.58002 4.41615 7.35978 4.19591C7.13954 3.97567 6.96497 3.7141 6.84608 3.42621C6.72719 3.13832 6.66633 2.82979 6.667 2.51832C6.667 1.20514 7.72418 0.147955 9.03737 0.147955C9.34883 0.147291 9.65737 0.208149 9.94525 0.327036C10.2331 0.445923 10.4947 0.620498 10.715 0.840739C10.9352 1.06098 11.1098 1.32255 11.2287 1.61044C11.3475 1.89832 11.4084 2.20686 11.4077 2.51832Z" fill="#36C5F1" stroke="#36C5F1" stroke-width="0.790123" stroke-linecap="round"/>
</svg>
